# xmcd
#
# Track frame offsets: 
#        150
#        20804
#        39985
#        56474
#        75690
#        92914
#        109668
#        125148
#        145459
#        167792
#        187810
#        209863
#        230811
#        246750
#        274336
#        294105
#
# Disc length: 4436 seconds
#
# Revision: 0
# Processed by: cddbd v1.5.2PL0 Copyright (c) Steve Scherf et al.
# Submitted via: ExactAudioCopy v0.95b4
#
DISCID=f1115210
DTITLE=Robin Thicke - The evolution of Robin Thicke
DYEAR=2006
DGENRE=R&B
TTITLE0=Got 2 be down
TTITLE1=Complicated
TTITLE2=Would that make u love me
TTITLE3=Lost without u
TTITLE4=Ask myself
TTITLE5=All night long
TTITLE6=Everything I can't have
TTITLE7=Teach u a lesson
TTITLE8=I need love
TTITLE9=Wanna love u girl
TTITLE10=Can u believe
TTITLE11=Shooter
TTITLE12=Cocaine
TTITLE13=2 the sky
TTITLE14=Lonely world
TTITLE15=Angels
EXTD=
EXTT0=
EXTT1=
EXTT2=
EXTT3=
EXTT4=
EXTT5=
EXTT6=
EXTT7=
EXTT8=
EXTT9=
EXTT10=
EXTT11=
EXTT12=
EXTT13=
EXTT14=
EXTT15=
PLAYORDER=
